<?xml version="1.0" standalone="no"?><!DOCTYPE svg PUBLIC "-//W3C//DTD SVG 1.1//EN" "http://www.w3.org/Graphics/SVG/1.1/DTD/svg11.dtd"><svg t="1649603897128" class="icon" viewBox="0 0 1024 1024" version="1.1" xmlns="http://www.w3.org/2000/svg" p-id="65560" xmlns:xlink="http://www.w3.org/1999/xlink" width="250" height="250"><defs><style type="text/css"></style></defs><path d="M896 192v512H128V192h768m0-64H128c-35.2 0-64 28.8-64 64v512c0 35.2 28.8 64 64 64h768c35.2 0 64-28.8 64-64V192c0-35.2-28.8-64-64-64z" fill="#2983bb" p-id="65561"></path><path d="M438.4 601.6c-9.6 0-16-3.2-25.6-6.4-16-9.6-28.8-28.8-28.8-48v-201.6c0-19.2 9.6-38.4 28.8-48 16-9.6 38.4-9.6 54.4 3.2l150.4 99.2c16 9.6 22.4 25.6 22.4 44.8s-9.6 35.2-22.4 44.8l-150.4 99.2c-9.6 9.6-19.2 12.8-28.8 12.8z m9.6-233.6v160l118.4-80-118.4-80zM928 896H96c-19.2 0-32-12.8-32-32s12.8-32 32-32h832c19.2 0 32 12.8 32 32s-12.8 32-32 32z" fill="#2983bb" p-id="65562"></path></svg>