<?xml version="1.0" standalone="no"?><!DOCTYPE svg PUBLIC "-//W3C//DTD SVG 1.1//EN" "http://www.w3.org/Graphics/SVG/1.1/DTD/svg11.dtd"><svg t="1649580138463" class="icon" viewBox="0 0 1024 1024" version="1.1" xmlns="http://www.w3.org/2000/svg" p-id="2219" width="200" height="200" xmlns:xlink="http://www.w3.org/1999/xlink"><defs><style type="text/css"></style></defs><path d="M798.208 768H736a32 32 0 0 1 0-64h128a32 32 0 0 1 32 32v128a32 32 0 0 1-64 0v-38.464A446.656 446.656 0 0 1 512 960C264.576 960 64 759.424 64 512S264.576 64 512 64s448 200.576 448 448a32 32 0 0 1-64 0c0-212.064-171.936-384-384-384S128 299.936 128 512s171.936 384 384 384a383.04 383.04 0 0 0 286.208-128z m-310.432-237.248V288a32 32 0 1 1 64 0v256a31.904 31.904 0 0 1-9.376 22.624l-135.776 135.776a32 32 0 0 1-45.248-45.248l126.4-126.4z" p-id="2220" fill="#2983bb"></path></svg>