<?xml version="1.0" standalone="no"?><!DOCTYPE svg PUBLIC "-//W3C//DTD SVG 1.1//EN" "http://www.w3.org/Graphics/SVG/1.1/DTD/svg11.dtd"><svg t="1649586551811" class="icon" viewBox="0 0 1070 1024" version="1.1" xmlns="http://www.w3.org/2000/svg" p-id="12623" xmlns:xlink="http://www.w3.org/1999/xlink" width="208.984375" height="200"><defs></defs><path d="M308.705882 573.490196c-48.941176 0-87.843137-38.901961-87.843137-87.843137s38.901961-87.843137 87.843137-87.843137 87.843137 38.901961 87.843138 87.843137-40.156863 87.843137-87.843138 87.843137z m0-138.039216c-27.607843 0-50.196078 22.588235-50.196078 50.196079s22.588235 50.196078 50.196078 50.196078 50.196078-22.588235 50.196079-50.196078-22.588235-50.196078-50.196079-50.196079zM538.352941 573.490196c-48.941176 0-87.843137-38.901961-87.843137-87.843137s38.901961-87.843137 87.843137-87.843137 87.843137 38.901961 87.843137 87.843137-40.156863 87.843137-87.843137 87.843137z m0-138.039216c-27.607843 0-50.196078 22.588235-50.196078 50.196079s22.588235 50.196078 50.196078 50.196078 50.196078-22.588235 50.196079-50.196078-22.588235-50.196078-50.196079-50.196079zM762.980392 573.490196c-48.941176 0-87.843137-38.901961-87.843137-87.843137s38.901961-87.843137 87.843137-87.843137 87.843137 38.901961 87.843137 87.843137-40.156863 87.843137-87.843137 87.843137z m0-138.039216c-27.607843 0-50.196078 22.588235-50.196078 50.196079s22.588235 50.196078 50.196078 50.196078 50.196078-22.588235 50.196079-50.196078-22.588235-50.196078-50.196079-50.196079z" fill="#ffffff" p-id="12624"></path><path d="M401.568627 927.372549c-6.27451 0-13.803922-1.254902-20.078431-2.509804-25.098039-5.019608-47.686275-20.078431-61.490196-42.666667-6.27451-8.784314-3.764706-20.078431 5.019608-26.352941s20.078431-3.764706 26.352941 5.019608c8.784314 13.803922 22.588235 22.588235 37.647059 26.352941 15.058824 2.509804 30.117647 0 42.666667-7.529411l141.803921-96.627451h272.313726c47.686275 0 86.588235-38.901961 86.588235-86.588236V274.823529c0-47.686275-38.901961-86.588235-86.588235-86.588235H224.627451c-47.686275 0-86.588235 38.901961-86.588235 86.588235v421.647059c0 47.686275 38.901961 86.588235 86.588235 86.588236 10.039216 0 18.823529 8.784314 18.823529 18.823529s-8.784314 18.823529-18.823529 18.823529C156.862745 821.960784 100.392157 765.490196 100.392157 697.72549V274.823529c0-69.019608 55.215686-124.235294 124.235294-124.235294h621.176471c69.019608 0 124.235294 55.215686 124.235294 124.235294v421.647059c0 69.019608-55.215686 124.235294-124.235294 124.235294H584.784314l-129.254902 89.09804-8.784314 6.274509c-13.803922 7.529412-28.862745 11.294118-45.176471 11.294118z" fill="#ffffff" p-id="12625"></path></svg>