<?xml version="1.0" standalone="no"?><!DOCTYPE svg PUBLIC "-//W3C//DTD SVG 1.1//EN" "http://www.w3.org/Graphics/SVG/1.1/DTD/svg11.dtd"><svg t="1649596413990" class="icon" viewBox="0 0 1024 1024" version="1.1" xmlns="http://www.w3.org/2000/svg" p-id="29745" xmlns:xlink="http://www.w3.org/1999/xlink" width="200" height="200"><defs><style type="text/css"></style></defs><path d="M377 856.7H250.8c-6.6 0-12-5.4-12-12V185.2c0-6.6 5.4-12 12-12H377c6.6 0 12 5.4 12 12v659.5c0 6.6-5.4 12-12 12z m-114.2-24H365V197.2H262.8v635.5z" fill="#2983bb" p-id="29746"></path><path d="M770 856.7H377c-6.6 0-12-5.4-12-12V185.2c0-6.6 5.4-12 12-12h393c6.6 0 12 5.4 12 12v659.5c0 6.6-5.4 12-12 12z m-381-24h369V197.2H389v635.5zM289.8 313.3h-82.1c-6.6 0-12-5.4-12-12s5.4-12 12-12h82.1c6.6 0 12 5.4 12 12s-5.4 12-12 12zM289.8 419.5h-82.1c-6.6 0-12-5.4-12-12s5.4-12 12-12h82.1c6.6 0 12 5.4 12 12s-5.4 12-12 12zM289.8 525.7h-82.1c-6.6 0-12-5.4-12-12s5.4-12 12-12h82.1c6.6 0 12 5.4 12 12s-5.4 12-12 12zM289.8 631.9h-82.1c-6.6 0-12-5.4-12-12s5.4-12 12-12h82.1c6.6 0 12 5.4 12 12s-5.4 12-12 12zM289.8 738.1h-82.1c-6.6 0-12-5.4-12-12s5.4-12 12-12h82.1c6.6 0 12 5.4 12 12s-5.4 12-12 12z" fill="#2983bb" p-id="29747"></path><path d="M699 379c-3 0-5.9-1.1-8.1-3.2l-48.1-44.5-48.1 44.5c-3.5 3.2-8.6 4.1-13 2.2-4.4-1.9-7.2-6.2-7.2-11V185.2c0-6.6 5.4-12 12-12H699c6.6 0 12 5.4 12 12V367c0 4.8-2.8 9.1-7.2 11-1.5 0.7-3.2 1-4.8 1z m-56.3-76c2.9 0 5.8 1.1 8.1 3.2l36.1 33.4V197.2h-88.6v142.4l36.1-33.4c2.5-2.1 5.4-3.2 8.3-3.2zM699 780.7c-6.6 0-12-5.4-12-12V652c0-6.6 5.4-12 12-12s12 5.4 12 12v116.7c0 6.7-5.4 12-12 12z" fill="#2983bb" p-id="29748"></path></svg>