<?xml version="1.0" standalone="no"?><!DOCTYPE svg PUBLIC "-//W3C//DTD SVG 1.1//EN" "http://www.w3.org/Graphics/SVG/1.1/DTD/svg11.dtd"><svg t="1649603288739" class="icon" viewBox="0 0 1024 1024" version="1.1" xmlns="http://www.w3.org/2000/svg" p-id="59883" xmlns:xlink="http://www.w3.org/1999/xlink" width="250" height="250"><defs><style type="text/css"></style></defs><path d="M263.112 64c-82.475 0-149.333 66.858-149.333 149.333v597.333c0 1.264 0.34 2.433 0.371 3.69-0.032 1.289-0.37 2.486-0.37 3.783 0 78.221 63.638 141.86 141.858 141.86H910.222v-37.333H263.11c-60.905 0-110.388-48.93-111.748-109.512 1.358-56.468 47.486-102.039 104.275-102.039h654.585V64h-647.11z m-7.474 609.784c-41.515 0-78.561 18.256-104.526 47.147V213.333c0-61.759 50.242-112 112-112H872.89v572.451H255.638z" p-id="59884" fill="#2983bb"></path><path d="M359.478 589.502c-10.316 0-18.667-8.348-18.667-18.667V421.502c0-10.318 8.349-18.667 18.667-18.667s18.668 8.349 18.668 18.667v149.333c0 10.319-8.35 18.667-18.668 18.667zM459.027 589.502c-10.318 0-18.667-8.348-18.667-18.667V371.736c0-10.318 8.349-18.667 18.667-18.667 10.317 0 18.667 8.349 18.667 18.667v199.1c0 10.318-8.348 18.666-18.667 18.666zM558.578 589.502c-10.317 0-18.668-8.348-18.668-18.667V421.502c0-10.318 8.35-18.667 18.668-18.667s18.667 8.349 18.667 18.667v149.333c-0.002 10.319-8.35 18.667-18.667 18.667zM658.146 589.502c-10.319 0-18.668-8.348-18.668-18.667V371.736c0-10.318 8.35-18.667 18.668-18.667 10.316 0 18.667 8.349 18.667 18.667v199.1c-0.002 10.318-8.35 18.666-18.667 18.666z" p-id="59885" fill="#2983bb"></path><path d="M558.578 358.994c-4.94 0-9.661-1.95-13.162-5.432l-90.253-89.815-82.505 82.304c-7.292 7.256-19.104 7.291-26.396-0.037-7.273-7.29-7.273-19.121 0.037-26.395l95.667-95.43c7.274-7.237 19.068-7.291 26.341-0.018l90.016 89.578 86.407-89.323c7.182-7.42 18.976-7.584 26.395-0.437 7.401 7.165 7.601 18.995 0.437 26.395l-99.568 102.922a18.705 18.705 0 0 1-13.234 5.688h-0.182zM867.197 829.325H266.09c-10.319 0-18.668-8.349-18.668-18.667 0-10.319 8.35-18.668 18.668-18.668h601.107c10.317 0 18.667 8.35 18.667 18.668s-8.349 18.667-18.667 18.667z" p-id="59886" fill="#2983bb"></path></svg>