<?xml version="1.0" standalone="no"?><!DOCTYPE svg PUBLIC "-//W3C//DTD SVG 1.1//EN" "http://www.w3.org/Graphics/SVG/1.1/DTD/svg11.dtd"><svg t="1649603928803" class="icon" viewBox="0 0 1024 1024" version="1.1" xmlns="http://www.w3.org/2000/svg" p-id="68696" xmlns:xlink="http://www.w3.org/1999/xlink" width="250" height="250"><defs><style type="text/css"></style></defs><path d="M1018.59665404 342.89703943c-3.28187609-35.40971144-13.47296249-69.78303921-30.055072-101.219953-20.38217544-37.65520519-48.19175236-70.81942154-82.04689029-97.41988706-36.27336206-29.36415044-74.10129765-49.22813471-112.10196229-59.07376165-16.40937779-4.1455267-49.91905626-11.74565991-92.75616916-4.31825843-30.22780238 5.18190905-53.5463918 15.89118662-68.22846837 24.1822427-1.03638234 0.86365196-7.4274028 6.39102046-7.25467241 14.50934483 0.17273038 10.70927889 11.57292951 16.23664741 12.78204225 16.92756897 8.29105476 3.97279631 16.23664741 1.55457219 31.78237456-2.93641531 12.78204224-3.80006592 25.21862373-8.98197499 38.17339637-11.22746874 24.87316293-4.1455267 50.26451572-2.93641531 74.79221788 3.45460514 32.12783535 8.46378514 64.42840111 25.56408451 96.03804527 50.95543728 57.69191852 46.46444979 90.16521465 103.63817847 96.5562351 169.96661253 2.93641531 33.16421637-0.34546078 66.67389485-10.01835732 98.45626808-8.6365142 28.67322886-20.20944506 48.88267392-27.46411747 57.51918947-2.59095452 3.1091457-262.89551077 309.18723016-343.56055926 378.10661873-27.11865667 23.31858941-58.0373793 30.22780238-91.71978682 20.38217545-25.21862373-7.4274028-43.52803448-21.59128685-45.94625996-23.66405154l-18.48214115-17.4457588 224.20392456-221.0947802c3.97279631-3.97279631 6.21829008-9.32743576 6.2182914-14.85480559 0-5.52736983-2.24549374-10.88200929-6.2182914-14.85480562-8.29105476-8.29105476-21.76401724-8.29105476-30.05507066 0l-224.03119551 221.0947802-0.69092022 0.69092021-52.85547158-50.60997647 0.51819118-0.51819119 224.20392456-221.09477885c3.97279631-3.97279631 6.21829008-9.32743576 6.21829139-14.8548056 0-5.52736983-2.24549374-10.88200929-6.21829139-14.85480562-8.29105476-8.29105476-21.76401724-8.29105476-30.055072 0L326.29362513 750.02234916l-0.69092156 0.86365062c-21.07309567-20.38217544-42.14619268-40.93707995-62.5283668-60.97379461l223.51300434-220.40385865c3.97279631-3.97279631 6.21829008-9.32743576 6.21829005-14.85480559 0-5.52736983-2.24549374-10.88200929-6.21829005-14.85480427-8.29105476-8.29105476-21.76401724-8.29105476-30.05507201 0L232.84653438 660.20259395c-18.13668169-17.96395131-36.27336206-36.10063168-54.06458165-54.41004242L401.77676457 385.90688406c5.18190905-5.18190905 7.4274028-12.60931185 5.70010024-19.69125388 31.60964417 31.09145301 86.71060949 81.18323966 130.23864396 100.0108416 32.99148597 14.33661443 73.75583685 2.24549374 101.39268339-29.8823416 29.01868964-33.68240754 33.33694675-76.86498257 11.40019912-110.20192932-22.45493881-34.02786831-63.56474914-75.82860023-96.7289655-107.09278362-1.90003297-0.69092156-31.60964417-27.98230864-31.78237456-29.19142003-44.73714721-39.90069894-89.64702347-75.48313943-108.30189636-85.50149677-13.12750305-7.25467242-64.60113149-27.11865667-127.82041851-25.7368149-35.92790128 0.51819118-71.33761273 8.6365142-104.15636963 23.49132114C142.50858935 120.07495666 107.96253119 148.40272607 78.9438402 185.88519954 23.32468503 258.08646422 1.9061286 334.43325561 15.03363161 413.5437306c8.11832438 49.57359548 30.055072 98.97445926 64.77386054 146.47529136 42.14619268 57.69191852 336.47861721 336.30588683 348.91519871 348.22427848l0.86365195 0.69092157c1.03638234 0.86365196 25.04589333 21.24582606 60.28287304 31.95510361 14.68207521 4.4909875 29.19142005 6.73648124 43.18257504 6.73648259 32.47329614 0 63.21928835-11.74565991 90.16521465-34.89152027 83.25600302-70.99215194 337.51499959-370.16102477 348.22427713-382.77033663 13.47296249-15.89118662 26.77319591-43.00984329 35.58244185-72.54672546 7.94559398-26.08227434 16.23664741-67.01935561 11.57292952-114.52018642zM114.18082127 535.49131982C58.38893571 459.14452975 12.96086692 340.82427607 112.79897947 211.44928404c45.42806744-58.72830086 103.9836379-89.3015627 174.11213791-90.85613621 54.23731337-1.20911273 98.28353902 16.063917 106.22913299 20.38217545 14.16388404 7.77286358 57.51918812 41.45527113 105.36548103 84.46511442 54.58277415 49.05540431 97.07442628 94.13801098 116.24748899 123.32943235 13.99115366 21.07309567 4.83644828 44.90987761-8.11832436 60.28287304-17.79122093 20.72763624-38.86431659 24.18224137-51.81908791 18.65487288-55.61915517-24.00951099-140.60246076-114.8656472-141.46611269-115.72929915-7.94559398-8.46378514-21.41855644-9.15470538-30.05507201-1.20911275-4.1455267 3.80006592-6.56375085 8.98197499-6.90921162 14.50934484-0.17273038 5.52736983 1.72730258 11.05473834 5.52736849 15.02753599 0.69092156 0.69092156 4.1455267 4.4909875 9.84562695 10.36381811-7.25467242-1.90003297-14.85480561 0.17273038-20.20944373 5.52736983L149.41780232 575.56474914c-12.43658147-12.78204224-24.18224137-26.08227434-35.23698105-40.07342932z m439.59860451-316.44190258l-32.81875557-30.22780238-8.63651555 11.74565991 20.72763623 21.41855778 20.72763489-2.93641531z" fill="#2983bb" p-id="68697"></path></svg>