<?xml version="1.0" standalone="no"?><!DOCTYPE svg PUBLIC "-//W3C//DTD SVG 1.1//EN" "http://www.w3.org/Graphics/SVG/1.1/DTD/svg11.dtd"><svg t="1649596103673" class="icon" viewBox="0 0 1024 1024" version="1.1" xmlns="http://www.w3.org/2000/svg" p-id="19424" xmlns:xlink="http://www.w3.org/1999/xlink" width="200" height="200"><defs><style type="text/css"></style></defs><path d="M893.456828 709.055005" p-id="19425" fill="#2983bb"></path><path d="M491.889987 337.939709" p-id="19426" fill="#2983bb"></path><path d="M568.154951 338.993714" p-id="19427" fill="#2983bb"></path><path d="M976.949404 656.04979c0-0.184195-0.186242-0.36532-0.187265-0.548492-0.01842-6.181793-0.405229-12.298094-1.023306-18.322297 0 0-4.458545-0.103354-4.463662-0.154519-1.985214-19.164478-9.67536-37.420261-18.885116-54.384631l0-0.022513c0-0.627287 3.987824-1.245364 3.728928-1.863441L814.558897 237.632165c-0.116657-0.277316 0.857531-0.555655 0.727571-0.823761-19.659759-51.359738-68.798922-85.751013-123.58469-85.751013-73.343425 0-132.741233 59.458183-132.741233 132.550898 0 3.15383 0.249687 4.192485 0.442068 6.055926 0.107447 1.057075 0.324388 2.535753 0.511653 5.876847-0.004093 0.832971 0.083911 1.932002 0.195451 2.774183l3.399423 25.341155L495.332389 323.656401l3.364631-25.341155c0.11154-0.832971 0.165776-1.794879 0.161682-2.62785 0.188288-3.350304 0.335644-4.901637 0.443092-5.958712 0.192382-1.863441 0.304945-2.934842 0.304945-6.087649 0-73.092715-59.673078-132.566248-133.016503-132.566248-54.781674 0-104.461143 34.374902-124.129088 85.72543-0.12996 0.277316-0.255827 0.551562-0.376577 0.838088L94.366228 580.75492c-0.255827 0.608867-4.623297 1.224898-4.623297 1.852184l0 0.022513c-9.209756 22.351054-11.386328 46.045709-11.461029 71.959915-0.001023 0.177032 3.823072-0.406253 3.823072-0.406253l0.052189 0 0.026606 0c0 100.284007 72.353888 174.048011 164.752298 183.458335 6.160303 0.627287 12.415774 1.418302 18.738783 1.418302 5.930059 0 11.80179-0.090051 17.610076-0.656963 2.866281-0.275269 5.659907-0.662079 8.486278-1.067308 2.775206-0.405229 5.567809-0.682545 8.306176-1.211595 3.762697-0.716314 7.439436-1.62808 11.118222-2.570545 1.6158-0.420579 3.247974-0.771573 4.847401-1.235131 4.291746-1.230014 8.485255-2.651386 12.641925-4.178159 0.827855-0.306992 1.662873-0.587378 2.485611-0.907673 4.656043-1.787716 9.202593-3.767813 13.668301-5.912663 0.189312-0.092098 0.3776-0.180102 0.566912-0.272199 48.533366-23.552415 85.10019-67.7705 98.254791-121.240295 0.064468-0.25992 0.138146-0.51677 0.200568-0.778736 1.217734-5.045923 2.194992-10.169617 2.984984-15.368012 0.044002-0.286526 0.122797-0.561795 0.164752-0.851391l0.071631-0.348947c0.090051-0.429789 0.165776-0.859577 0.224104-1.298576l0.556679-4.14746c0.104377-0.913812 0.274246-1.679245 0.36532-2.597151l21.262256-158.378124 119.859855 0 21.262256 158.378124c0.091074 0.917906 0.260943 1.746784 0.36532 2.660596l0.556679 4.116761c0.058328 0.438998 0.134053 0.853437 0.224104 1.283226l0.071631 0.350994c0.044002 0.299829 0.125867 0.580215 0.170892 0.877997 0.787946 5.179976 1.76111 10.282181 2.974751 15.312754 0.067538 0.282433 0.147356 0.556679 0.215918 0.837064 13.165858 53.459562 49.735751 97.66332 98.269118 121.206526 0.171915 0.082888 0.344854 0.165776 0.51677 0.248663 4.479011 2.15406 9.036817 4.14132 13.707187 5.935176 0.810459 0.313132 1.63422 0.595564 2.449795 0.898463 4.166903 1.531889 8.370645 2.963495 12.672624 4.194532 1.589195 0.461511 3.210112 0.823761 4.816702 1.240247 3.687996 0.947582 7.370875 1.888 11.142781 2.607384 2.732228 0.529049 5.517667 0.864694 8.28571 1.267876 2.832512 0.407276 5.629207 0.911766 8.501628 1.187035 5.807263 0.566912 11.6749 0.8913 17.60496 0.8913 6.323009 0 12.730952-0.322341 18.891256-0.949628 92.39841-9.411347 164.898631-87.674828 164.898631-182.520987l0-0.004093L976.949404 656.04979 976.949404 656.04979zM692.251294 187.751105c40.017412 0 76.290547 25.415856 90.26584 63.238276 0.255827 0.689708 0.559748 1.379417 0.904603 2.042519l102.70515 245.12993c-27.303856-16.140609-59.018162-25.574469-92.967368-25.574469-68.648496 0-128.525212 37.95545-159.980621 93.928253l-36.515658-272.211728c-0.25992-4.9088-0.478907-6.969739-0.62217-8.403391-0.075725-0.708128-0.11154-1.102101-0.11154-2.293229C595.928504 230.752478 639.140679 187.751105 692.251294 187.751105zM275.383978 253.112742c0.358157-0.689708 0.672312-1.397836 0.940418-2.12336 13.975293-37.823444 50.248428-63.238276 90.26584-63.238276 53.110615 0 96.321766 43.001373 96.321766 95.856162 0 1.191128-0.035816 1.586125-0.11154 2.293229-0.143263 1.433652-0.363274 3.493567-0.62217 8.403391l-36.515658 272.211728c-31.455409-55.972802-91.332125-93.928253-159.980621-93.928253-33.948183 0-65.663512 9.432837-92.966345 25.572422L275.383978 253.112742zM190.405561 785.092795c-45.74895-24.88476-82.243119-73.39459-82.243119-129.038912 0-0.058328 0-0.116657 0-0.174985 0-5.102205 5.652743-10.172687 6.185886-15.202237 0.082888-0.787946 2.949168-1.545192 3.044336-2.329045 0.532119-4.344958 2.51938-8.676613 3.444449-12.95608 0.109494-0.51063 0.946558-1.000793 1.061169-1.511423 1.034563-4.544503 2.572592-9.05933 4.049223-13.515828 0.10847-0.329505 0.415462-0.647753 0.525979-0.976234 1.528819-4.51278 3.356444-8.976442 5.336542-13.381775 23.006993-51.043536 74.30431-86.723154 133.829008-86.723154 80.931241 0 146.797367 65.845661 146.797367 146.776901 0 4.821819-0.25685 9.581216-0.713244 14.284331l-0.50449 3.798513c-0.097214 0.787946-0.245593 1.556449-0.355087 2.338255-0.031722 0.183172-0.068562 0.36532-0.096191 0.550539-7.057743 49.267077-38.700417 90.205465-81.299631 111.014396-0.079818 0.037862-0.160659 0.075725-0.240477 0.116657-3.634784 1.76725-7.358595 3.368724-11.142781 4.835122-0.598634 0.230244-1.206478 0.441045-1.809205 0.663102-3.377934 1.258667-6.80601 2.405793-10.288321 3.415796-1.234107 0.352017-2.493797 0.64059-3.741207 0.962931-2.989077 0.779759-5.989411 1.527796-9.042957 2.118244-2.146896 0.410346-4.338818 0.683569-6.517437 0.998747-2.301416 0.338714-4.584412 0.738827-6.91448 0.964978-4.641717 0.446162-12.020778 0.714268-16.777105 0.714268C237.70482 802.834878 211.20119 796.405445 190.405561 785.092795zM474.41294 479.19792l15.997346-118.703519 78.020958 0 15.997346 118.703519L474.41294 479.19792zM793.160541 802.834878c-4.756327 0-9.448186-0.26913-14.089903-0.714268-2.335185-0.228197-4.622274-0.629333-6.928806-0.967024-2.173502-0.316202-4.358261-0.586354-6.500041-0.9967-3.059686-0.591471-6.068206-1.339508-9.063423-2.12336-1.238201-0.320295-2.489704-0.606821-3.715625-0.958838-3.492544-1.01205-6.930853-2.161223-10.31902-3.423983-0.589424-0.216941-1.183965-0.423649-1.77032-0.647753-3.803629-1.473561-7.546883-3.084245-11.199063-4.859681-0.055259-0.026606-0.110517-0.053212-0.164752-0.080841-42.615587-20.803815-74.274634-61.755506-81.337493-111.041002-0.029676-0.192382-0.068562-0.382717-0.102331-0.573051-0.10847-0.772596-0.25685-1.529843-0.353041-2.306532l-0.509606-3.798513c-0.456395-4.703115-0.723477-9.462512-0.723477-14.284331 0-80.931241 65.845661-146.776901 146.776901-146.776901 59.526745 0 110.784152 35.681664 133.790122 86.727247 1.968841 4.378727 3.699252 8.81783 5.221932 13.302981 0.121773 0.360204 0.273223 0.708128 0.39295 1.070378 1.459235 4.40738 2.64627 8.876158 3.673669 13.374612 0.125867 0.555655 0.305969 1.088798 0.425695 1.648546 0.916882 4.243651 1.551332 8.53949 2.082428 12.850679 0.099261 0.815575-2.693342 1.601474-2.608407 2.421142 0.532119 5.028527-2.167363 10.099009-2.167363 15.20019 0 0.058328 0 0.116657 0 0.174985 0 55.643298-28.139897 104.154151-73.888847 129.038912C839.286068 796.405445 818.451554 802.834878 793.160541 802.834878z" p-id="19428" fill="#2983bb"></path><path d="M279.441387 576.560388c0-10.131755-8.215102-18.346857-18.346857-18.346857-7.744381 0-15.44476 0.923022-22.8668 2.732228-43.246967 10.534937-73.455989 49.021483-73.455989 93.589538 0 10.131755 8.215102 18.346857 18.346857 18.346857s18.346857-8.215102 18.346857-18.346857c0-27.592428 18.687618-51.41295 45.460378-57.94369 4.586458-1.119497 9.353019-1.684362 14.167674-1.684362C271.226285 594.907245 279.441387 586.693166 279.441387 576.560388z" p-id="19429" fill="#2983bb"></path><path d="M793.160541 558.213531c-7.744381 0-15.44476 0.923022-22.8668 2.732228-43.246967 10.534937-73.455989 49.021483-73.455989 93.589538 0 10.131755 8.215102 18.346857 18.346857 18.346857s18.346857-8.215102 18.346857-18.346857c0-27.592428 18.687618-51.41295 45.460378-57.94369 4.586458-1.119497 9.353019-1.684362 14.167674-1.684362 10.131755 0 18.346857-8.215102 18.346857-18.346857C811.507398 566.428633 803.292296 558.213531 793.160541 558.213531z" p-id="19430" fill="#2983bb"></path></svg>