<?xml version="1.0" standalone="no"?><!DOCTYPE svg PUBLIC "-//W3C//DTD SVG 1.1//EN" "http://www.w3.org/Graphics/SVG/1.1/DTD/svg11.dtd"><svg t="1649604035133" class="icon" viewBox="0 0 1024 1024" version="1.1" xmlns="http://www.w3.org/2000/svg" p-id="76015" xmlns:xlink="http://www.w3.org/1999/xlink" width="250" height="250"><defs><style type="text/css"></style></defs><path d="M692.352 151.637333l-254.656 147.008h-128l369.152-213.12a42.666667 42.666667 0 0 1 58.282667 15.637334l114.005333 197.482666L938.666667 298.666667a42.666667 42.666667 0 0 1 42.666666 42.666666v554.666667a42.666667 42.666667 0 0 1-42.666666 42.666667H85.333333a42.666667 42.666667 0 0 1-42.666666-42.666667V341.333333a42.666667 42.666667 0 0 1 42.666666-42.666666h691.904l-84.885333-147.029334zM917.333333 362.666667H106.666667v128h192a128 128 0 1 1 0 256H106.666667v128h810.666666V362.666667z m-618.666666 192H106.666667v128h192a64 64 0 0 0 3.754666-127.893334L298.666667 554.666667z m522.666666 0a32 32 0 0 1 32 32v64a32 32 0 0 1-64 0v-64a32 32 0 0 1 32-32z" fill="#2983bb" p-id="76016"></path></svg>